<?xml version='1.0' encoding='utf-8'?>
<svg xmlns="http://www.w3.org/2000/svg" width="297mm" height="210mm" version="1.1" viewBox="0 0 1052.4 744.09"> <path d="m539.43 370.69a14.401 14.057 0 0 1-14.326 14.057 14.401 14.057 0 0 1-14.476-13.909 14.401 14.057 0 0 1 14.173-14.203 14.401 14.057 0 0 1 14.625 13.76l-14.398 0.29537z" fill="#000058" stroke="#000058" stroke-width="1.1223"/> <path d="m494.14 373.33-44.828-2.7028 45.001-2.2118 20.327 2.1174z" fill="#000058" fill-rule="evenodd" stroke="#000058" stroke-miterlimit="0" stroke-width=".10113"/> <g fill="#000058" fill-rule="evenodd" stroke="#000058" stroke-miterlimit="0" stroke-width=".10113"> <path d="m494.89 365.14-42.405-14.785 43.908 10.103 18.986 7.5626z"/> <path d="m497.21 357.66-37.292-25.022 39.93 20.872 16.458 12.115z"/> <path d="m501.47 350.5-29.522-33.842 33.146 30.518 12.751 15.971z"/> <path d="m507.5 345.19-19.908-40.255 24.261 37.966 8.2531 18.696z"/> <path d="m514.51 341.19-8.8405-44.03 13.636 42.942 3.1464 20.193z"/> <path d="m522.52 339.92 2.9276-44.814 1.9861 45.012-2.2193 20.316z"/> <path d="m530.74 339.91 14.35-42.555-9.652 44.01-7.3673 19.063z"/> <path d="m538.27 342.61 25.014-37.298-20.862 39.935-12.111 16.461z"/> <path d="m545.16 346.9 33.582-29.818-30.226 33.412-15.859 12.89z"/> <path d="m550.74 352.87 40.259-19.9-37.971 24.253-18.698 8.2492z"/> <path d="m554.84 360.05 43.958-9.1947-42.831 13.982-20.167 3.3089z"/> <path d="m556.76 368.04 44.831 2.6395-44.998 2.2754-20.33-2.0886z"/> <path d="m495.9 380.96-43.865 9.6276 42.691-14.403 20.133-3.5076z"/> <path d="m499.68 388.47-40.317 19.783 38.041-24.143 18.722-8.195z"/> <path d="m504.98 394.39-33.667 29.721 30.322-33.326 15.895-12.845z"/> <path d="m511.69 399.09-24.521 37.624 20.335-40.206 11.894-16.619z"/> <path d="m519.69 401.91-14.391 42.541 9.6946-44 7.3858-19.055z"/> <path d="m527.75 401.88-3.0146 44.808-1.8987-45.016 2.2587-20.311z"/> <path d="m535.66 400.12 9.1174 43.974-13.906-42.856-3.2734-20.173z"/> <path d="m543.12 396.4 20.115 40.152-24.456-37.841-8.3491-18.653z"/> <path d="m549.42 391.09 29.884 33.522-33.472-30.16-12.922-15.833z"/> <path d="m552.9 383.57 37.371 24.904-39.995-20.745-16.497-12.063z"/> <path d="m555.35 376.1 42.686 13.956-44.097-9.245-19.13-7.1909z"/> </g> <g stroke="#000058" stroke-miterlimit="0"> <path d="m607.9 371.18a83.01 83.01 0 0 1-82.921 83.01 83.01 83.01 0 0 1-83.098-82.833 83.01 83.01 0 0 1 82.744-83.186 83.01 83.01 0 0 1 83.274 82.655" fill="none" stroke-width="11.463"/> <path d="m526.61 355.06a0.1462 5.117 0 0 1-0.14604 5.117 0.1462 5.117 0 0 1-0.14635-5.1061 0.1462 5.117 0 0 1 0.14573-5.1278 0.1462 5.117 0 0 1 0.14666 5.0952" fill="#000058" stroke-width=".10113"/> </g> <g fill="#000058" stroke="#000058" stroke-miterlimit="0" stroke-width="5.8039"> <path d="m480.24 309.23a1.8262 1.7282 0 0 1-1.8243 1.7282 1.8262 1.7282 0 0 1-1.8282-1.7245 1.8262 1.7282 0 0 1 1.8204-1.7319 1.8262 1.7282 0 0 1 1.832 1.7208"/> <path d="m497.73 299.21a1.8262 1.7282 0 0 1-1.8243 1.7282 1.8262 1.7282 0 0 1-1.8282-1.7245 1.8262 1.7282 0 0 1 1.8204-1.7319 1.8262 1.7282 0 0 1 1.832 1.7208"/> <path d="m517.24 294.03a1.8262 1.7282 0 0 1-1.8243 1.7282 1.8262 1.7282 0 0 1-1.8282-1.7245 1.8262 1.7282 0 0 1 1.8204-1.7319 1.8262 1.7282 0 0 1 1.832 1.7208"/> <path d="m537.3 293.89a1.8262 1.7282 0 0 1-1.8243 1.7282 1.8262 1.7282 0 0 1-1.8282-1.7245 1.8262 1.7282 0 0 1 1.8204-1.7319 1.8262 1.7282 0 0 1 1.832 1.7208"/> <path d="m556.81 299.21a1.8262 1.7282 0 0 1-1.8243 1.7282 1.8262 1.7282 0 0 1-1.8282-1.7245 1.8262 1.7282 0 0 1 1.8204-1.7319 1.8262 1.7282 0 0 1 1.832 1.7208"/> <path d="m574.4 309.58a1.8262 1.7282 0 0 1-1.8243 1.7282 1.8262 1.7282 0 0 1-1.8282-1.7245 1.8262 1.7282 0 0 1 1.8204-1.7319 1.8262 1.7282 0 0 1 1.832 1.7208"/> <path d="m588.73 324.31a1.8262 1.7282 0 0 1-1.8243 1.7282 1.8262 1.7282 0 0 1-1.8282-1.7245 1.8262 1.7282 0 0 1 1.8204-1.7319 1.8262 1.7282 0 0 1 1.832 1.7208"/> <path d="m598.69 341.23a1.8262 1.7282 0 0 1-1.8243 1.7282 1.8262 1.7282 0 0 1-1.8282-1.7245 1.8262 1.7282 0 0 1 1.8204-1.7319 1.8262 1.7282 0 0 1 1.832 1.7208"/> <path d="m604.15 361.01a1.8262 1.7282 0 0 1-1.8243 1.7282 1.8262 1.7282 0 0 1-1.8282-1.7245 1.8262 1.7282 0 0 1 1.8204-1.7319 1.8262 1.7282 0 0 1 1.832 1.7208"/> <path d="m603.46 381.2a1.8262 1.7282 0 0 1-1.8243 1.7282 1.8262 1.7282 0 0 1-1.8282-1.7245 1.8262 1.7282 0 0 1 1.8204-1.7319 1.8262 1.7282 0 0 1 1.832 1.7208"/> <path d="m598.14 400.17a1.8262 1.7282 0 0 1-1.8243 1.7282 1.8262 1.7282 0 0 1-1.8282-1.7245 1.8262 1.7282 0 0 1 1.8204-1.7319 1.8262 1.7282 0 0 1 1.832 1.7208"/> <path d="m588.59 418.04a1.8262 1.7282 0 0 1-1.8243 1.7282 1.8262 1.7282 0 0 1-1.8282-1.7245 1.8262 1.7282 0 0 1 1.8204-1.7319 1.8262 1.7282 0 0 1 1.832 1.7208"/> <path d="m574.13 432.23a1.8262 1.7282 0 0 1-1.8243 1.7282 1.8262 1.7282 0 0 1-1.8282-1.7245 1.8262 1.7282 0 0 1 1.8204-1.7319 1.8262 1.7282 0 0 1 1.832 1.7208"/> <path d="m556.53 442.32a1.8262 1.7282 0 0 1-1.8243 1.7282 1.8262 1.7282 0 0 1-1.8282-1.7245 1.8262 1.7282 0 0 1 1.8204-1.7319 1.8262 1.7282 0 0 1 1.832 1.7208"/> <path d="m536.89 447.37a1.8262 1.7282 0 0 1-1.8243 1.7282 1.8262 1.7282 0 0 1-1.8282-1.7245 1.8262 1.7282 0 0 1 1.8204-1.7319 1.8262 1.7282 0 0 1 1.832 1.7208"/> <path d="m516.83 446.96a1.8262 1.7282 0 0 1-1.8243 1.7282 1.8262 1.7282 0 0 1-1.8282-1.7245 1.8262 1.7282 0 0 1 1.8204-1.7319 1.8262 1.7282 0 0 1 1.832 1.7208"/> <path d="m497.6 441.91a1.8262 1.7282 0 0 1-1.8243 1.7282 1.8262 1.7282 0 0 1-1.8282-1.7245 1.8262 1.7282 0 0 1 1.8204-1.7319 1.8262 1.7282 0 0 1 1.832 1.7208"/> <path d="m480.13 431.82a1.8262 1.7282 0 0 1-1.8243 1.7282 1.8262 1.7282 0 0 1-1.8282-1.7245 1.8262 1.7282 0 0 1 1.8204-1.7319 1.8262 1.7282 0 0 1 1.832 1.7208"/> <path d="m465.95 417.76a1.8262 1.7282 0 0 1-1.8243 1.7282 1.8262 1.7282 0 0 1-1.8282-1.7245 1.8262 1.7282 0 0 1 1.8204-1.7319 1.8262 1.7282 0 0 1 1.832 1.7208"/> <path d="m455.58 400.17a1.8262 1.7282 0 0 1-1.8243 1.7282 1.8262 1.7282 0 0 1-1.8282-1.7245 1.8262 1.7282 0 0 1 1.8204-1.7319 1.8262 1.7282 0 0 1 1.832 1.7208"/> <path d="m450.39 381.2a1.8262 1.7282 0 0 1-1.8243 1.7282 1.8262 1.7282 0 0 1-1.8282-1.7245 1.8262 1.7282 0 0 1 1.8204-1.7319 1.8262 1.7282 0 0 1 1.832 1.7208"/> <path d="m450.53 360.33a1.8262 1.7282 0 0 1-1.8243 1.7282 1.8262 1.7282 0 0 1-1.8282-1.7245 1.8262 1.7282 0 0 1 1.8204-1.7319 1.8262 1.7282 0 0 1 1.832 1.7208"/> <path d="m456.12 340.68a1.8262 1.7282 0 0 1-1.8243 1.7282 1.8262 1.7282 0 0 1-1.8282-1.7245 1.8262 1.7282 0 0 1 1.8204-1.7319 1.8262 1.7282 0 0 1 1.832 1.7208"/> <path d="m465.67 323.22a1.8262 1.7282 0 0 1-1.8243 1.7282 1.8262 1.7282 0 0 1-1.8282-1.7245 1.8262 1.7282 0 0 1 1.8204-1.7319 1.8262 1.7282 0 0 1 1.832 1.7208"/> </g> <rect x="31.629" y="478.35" width="987.61" height="221.92" fill="#138808" stroke="#138808" stroke-linecap="square" stroke-miterlimit="0" stroke-width=".99847"/> <rect x="31.859" y="39.34" width="987.64" height="220.92" fill="#f93" stroke="#f93" stroke-linecap="square" stroke-miterlimit="0" stroke-width="1.0003"/> <rect x="31.183" y="39.34" width="989.06" height="660.94" fill="none" stroke="#000" stroke-linecap="square" stroke-miterlimit="0"/> </svg>